<svg width="27" height="27" viewBox="0 0 27 27" fill="none" xmlns="http://www.w3.org/2000/svg">
<mask id="mask0_2_84" style="mask-type:luminance" maskUnits="userSpaceOnUse" x="0" y="0" width="27" height="27">
<path d="M13.2 25.2C19.8274 25.2 25.2 19.8274 25.2 13.2C25.2 6.57258 19.8274 1.2 13.2 1.2C6.57258 1.2 1.2 6.57258 1.2 13.2C1.2 19.8274 6.57258 25.2 13.2 25.2Z" fill="white" stroke="white" stroke-width="2.4" stroke-linecap="round" stroke-linejoin="round"/>
<path d="M10.8 8.39999H15C15.6365 8.39999 16.247 8.65285 16.6971 9.10294C17.1471 9.55303 17.4 10.1635 17.4 10.8C17.4 11.4365 17.1471 12.047 16.6971 12.497C16.247 12.9471 15.6365 13.2 15 13.2H10.8V8.39999Z" fill="white"/>
<path d="M10.8 8.4V13.2H15C15.6365 13.2 16.247 12.9471 16.6971 12.4971C17.1471 12.047 17.4 11.4365 17.4 10.8C17.4 10.1635 17.1471 9.55303 16.6971 9.10294C16.247 8.65286 15.6365 8.4 15 8.4H13.8M10.8 8.4H8.39999M10.8 8.4V6M10.8 8.4H13.8M13.8 8.4V6" stroke="black" stroke-width="2.4" stroke-linecap="round" stroke-linejoin="round"/>
<path d="M10.8 13.2H16.2C16.8365 13.2 17.447 13.4529 17.8971 13.9029C18.3471 14.353 18.6 14.9635 18.6 15.6C18.6 16.2365 18.3471 16.847 17.8971 17.2971C17.447 17.7471 16.8365 18 16.2 18H10.8V13.2Z" fill="white"/>
<path d="M10.8 18V13.2H16.2C16.8365 13.2 17.447 13.4529 17.897 13.9029C18.3471 14.353 18.6 14.9635 18.6 15.6C18.6 16.2365 18.3471 16.847 17.897 17.2971C17.447 17.7471 16.8365 18 16.2 18H13.8M10.8 18V20.4M10.8 18H8.39999H13.8M10.8 18H13.8M13.8 18V20.4" stroke="black" stroke-width="2.4" stroke-linecap="round" stroke-linejoin="round"/>
</mask>
<g mask="url(#mask0_2_84)">
<path d="M-1.2 -1.2H27.6V27.6H-1.2V-1.2Z" fill="#FF924D"/>
</g>
</svg>
